<mxfile host="65bd71144e" pages="5">
    <diagram name="整机电控硬件图" id="oRfmAEAdgWyYbspXT-HZ">
        <mxGraphModel dx="1354" dy="607" grid="1" gridSize="10" guides="1" tooltips="1" connect="1" arrows="1" fold="1" page="1" pageScale="1" pageWidth="1654" pageHeight="1169" background="none" math="0" shadow="1">
            <root>
                <mxCell id="0"/>
                <mxCell id="1" parent="0"/>
                <mxCell id="ipltXtEzXzWhb76HW8sk-12" style="edgeStyle=orthogonalEdgeStyle;rounded=1;orthogonalLoop=1;jettySize=auto;html=1;exitX=0;exitY=0.5;exitDx=0;exitDy=0;entryX=0.75;entryY=1;entryDx=0;entryDy=0;" parent="1" source="ipltXtEzXzWhb76HW8sk-1" target="ipltXtEzXzWhb76HW8sk-10" edge="1">
                    <mxGeometry relative="1" as="geometry"/>
                </mxCell>
                <mxCell id="ipltXtEzXzWhb76HW8sk-1" value="前左(FL)舵轮组&lt;br&gt;(M2006*2)" style="rounded=1;whiteSpace=wrap;html=1;fontFamily=仿宋;fillColor=#f5f5f5;fontColor=#333333;strokeColor=#666666;" parent="1" vertex="1">
                    <mxGeometry x="260" y="680" width="119" height="60" as="geometry"/>
                </mxCell>
                <mxCell id="ipltXtEzXzWhb76HW8sk-13" style="edgeStyle=orthogonalEdgeStyle;rounded=1;orthogonalLoop=1;jettySize=auto;html=1;exitX=0.5;exitY=1;exitDx=0;exitDy=0;entryX=0.25;entryY=1;entryDx=0;entryDy=0;jumpStyle=arc;" parent="1" source="ipltXtEzXzWhb76HW8sk-2" target="ipltXtEzXzWhb76HW8sk-10" edge="1">
                    <mxGeometry relative="1" as="geometry"/>
                </mxCell>
                <mxCell id="ipltXtEzXzWhb76HW8sk-2" value="前右(FR)舵轮组&lt;br&gt;(M2006*2)" style="rounded=1;whiteSpace=wrap;html=1;fontFamily=仿宋;fillColor=#f5f5f5;fontColor=#333333;strokeColor=#666666;" parent="1" vertex="1">
                    <mxGeometry x="620" y="680" width="119" height="60" as="geometry"/>
                </mxCell>
                <mxCell id="ipltXtEzXzWhb76HW8sk-11" style="edgeStyle=orthogonalEdgeStyle;rounded=1;orthogonalLoop=1;jettySize=auto;html=1;exitX=0;exitY=0.5;exitDx=0;exitDy=0;entryX=1;entryY=0.5;entryDx=0;entryDy=0;" parent="1" source="ipltXtEzXzWhb76HW8sk-3" target="ipltXtEzXzWhb76HW8sk-10" edge="1">
                    <mxGeometry relative="1" as="geometry"/>
                </mxCell>
                <mxCell id="ipltXtEzXzWhb76HW8sk-3" value="前中(FM)舵轮组&lt;br&gt;(M2006*2)" style="rounded=1;whiteSpace=wrap;html=1;fontFamily=仿宋;fillColor=#f5f5f5;fontColor=#333333;strokeColor=#666666;" parent="1" vertex="1">
                    <mxGeometry x="440" y="280" width="119" height="60" as="geometry"/>
                </mxCell>
                <mxCell id="ipltXtEzXzWhb76HW8sk-19" style="edgeStyle=orthogonalEdgeStyle;rounded=1;orthogonalLoop=1;jettySize=auto;html=1;exitX=1;exitY=0.5;exitDx=0;exitDy=0;entryX=0;entryY=0.25;entryDx=0;entryDy=0;" parent="1" source="ipltXtEzXzWhb76HW8sk-4" target="ipltXtEzXzWhb76HW8sk-15" edge="1">
                    <mxGeometry relative="1" as="geometry"/>
                </mxCell>
                <mxCell id="ipltXtEzXzWhb76HW8sk-4" value="左压缩量传感器&lt;br&gt;左张角编码器" style="rounded=1;whiteSpace=wrap;html=1;fontFamily=仿宋;fillColor=#d5e8d4;strokeColor=#82b366;" parent="1" vertex="1">
                    <mxGeometry x="260" y="600" width="119" height="60" as="geometry"/>
                </mxCell>
                <mxCell id="ipltXtEzXzWhb76HW8sk-20" style="edgeStyle=orthogonalEdgeStyle;rounded=1;orthogonalLoop=1;jettySize=auto;html=1;exitX=0;exitY=0.5;exitDx=0;exitDy=0;entryX=1;entryY=0.25;entryDx=0;entryDy=0;" parent="1" source="ipltXtEzXzWhb76HW8sk-5" target="ipltXtEzXzWhb76HW8sk-15" edge="1">
                    <mxGeometry relative="1" as="geometry"/>
                </mxCell>
                <mxCell id="ipltXtEzXzWhb76HW8sk-5" value="右压缩量传感器&lt;br&gt;右张角编码器" style="rounded=1;whiteSpace=wrap;html=1;fontFamily=仿宋;fillColor=#d5e8d4;strokeColor=#82b366;" parent="1" vertex="1">
                    <mxGeometry x="620" y="600" width="119" height="60" as="geometry"/>
                </mxCell>
                <mxCell id="ipltXtEzXzWhb76HW8sk-14" style="edgeStyle=orthogonalEdgeStyle;rounded=1;orthogonalLoop=1;jettySize=auto;html=1;exitX=0;exitY=0.5;exitDx=0;exitDy=0;entryX=0.5;entryY=0;entryDx=0;entryDy=0;jumpStyle=arc;jumpSize=10;" parent="1" source="ipltXtEzXzWhb76HW8sk-6" target="ipltXtEzXzWhb76HW8sk-10" edge="1">
                    <mxGeometry relative="1" as="geometry">
                        <Array as="points">
                            <mxPoint x="150" y="390"/>
                        </Array>
                    </mxGeometry>
                </mxCell>
                <mxCell id="ipltXtEzXzWhb76HW8sk-6" value="测距传感器*2" style="rounded=1;whiteSpace=wrap;html=1;fontFamily=仿宋;fillColor=#d5e8d4;strokeColor=#82b366;" parent="1" vertex="1">
                    <mxGeometry x="440" y="360" width="119" height="60" as="geometry"/>
                </mxCell>
                <mxCell id="ipltXtEzXzWhb76HW8sk-17" style="edgeStyle=orthogonalEdgeStyle;rounded=1;orthogonalLoop=1;jettySize=auto;html=1;exitX=1;exitY=0.5;exitDx=0;exitDy=0;entryX=0.25;entryY=0;entryDx=0;entryDy=0;" parent="1" source="ipltXtEzXzWhb76HW8sk-7" target="ipltXtEzXzWhb76HW8sk-15" edge="1">
                    <mxGeometry relative="1" as="geometry"/>
                </mxCell>
                <mxCell id="ipltXtEzXzWhb76HW8sk-7" value="前左(FL)臂张角电机&lt;br&gt;(M2006*1)" style="rounded=1;whiteSpace=wrap;html=1;fontFamily=仿宋;fillColor=#f5f5f5;fontColor=#333333;strokeColor=#666666;" parent="1" vertex="1">
                    <mxGeometry x="260" y="520" width="119" height="60" as="geometry"/>
                </mxCell>
                <mxCell id="ipltXtEzXzWhb76HW8sk-18" style="edgeStyle=orthogonalEdgeStyle;rounded=1;orthogonalLoop=1;jettySize=auto;html=1;exitX=0;exitY=0.5;exitDx=0;exitDy=0;entryX=0.75;entryY=0;entryDx=0;entryDy=0;" parent="1" source="ipltXtEzXzWhb76HW8sk-8" target="ipltXtEzXzWhb76HW8sk-15" edge="1">
                    <mxGeometry relative="1" as="geometry"/>
                </mxCell>
                <mxCell id="ipltXtEzXzWhb76HW8sk-8" value="前右(FR)臂张角电机&lt;br&gt;(M2006*1)" style="rounded=1;whiteSpace=wrap;html=1;fontFamily=仿宋;fillColor=#f5f5f5;fontColor=#333333;strokeColor=#666666;" parent="1" vertex="1">
                    <mxGeometry x="620" y="520" width="119" height="60" as="geometry"/>
                </mxCell>
                <mxCell id="ipltXtEzXzWhb76HW8sk-16" style="edgeStyle=orthogonalEdgeStyle;rounded=1;orthogonalLoop=1;jettySize=auto;html=1;exitX=0.5;exitY=1;exitDx=0;exitDy=0;entryX=0.5;entryY=0;entryDx=0;entryDy=0;" parent="1" source="ipltXtEzXzWhb76HW8sk-9" target="ipltXtEzXzWhb76HW8sk-15" edge="1">
                    <mxGeometry relative="1" as="geometry"/>
                </mxCell>
                <mxCell id="ipltXtEzXzWhb76HW8sk-9" value="前中(FM)下压电机&lt;br&gt;(M2006*1)" style="rounded=1;whiteSpace=wrap;html=1;fontFamily=仿宋;fillColor=#f5f5f5;fontColor=#333333;strokeColor=#666666;" parent="1" vertex="1">
                    <mxGeometry x="440" y="440" width="119" height="60" as="geometry"/>
                </mxCell>
                <mxCell id="ipltXtEzXzWhb76HW8sk-52" style="edgeStyle=orthogonalEdgeStyle;rounded=1;orthogonalLoop=1;jettySize=auto;html=1;exitX=0.25;exitY=0;exitDx=0;exitDy=0;entryX=0;entryY=0.5;entryDx=0;entryDy=0;dashed=1;strokeWidth=2;" parent="1" source="ipltXtEzXzWhb76HW8sk-10" target="ipltXtEzXzWhb76HW8sk-51" edge="1">
                    <mxGeometry relative="1" as="geometry"/>
                </mxCell>
                <mxCell id="ipltXtEzXzWhb76HW8sk-10" value="前大主控&lt;br&gt;控制三组驱动电机&lt;br&gt;控6个电机&lt;br&gt;使用双路CAN大板子" style="rounded=1;whiteSpace=wrap;html=1;fontFamily=仿宋;fillColor=#f8cecc;strokeColor=#b85450;" parent="1" vertex="1">
                    <mxGeometry x="70" y="420" width="161" height="100" as="geometry"/>
                </mxCell>
                <mxCell id="ipltXtEzXzWhb76HW8sk-21" style="edgeStyle=orthogonalEdgeStyle;rounded=1;orthogonalLoop=1;jettySize=auto;html=1;exitX=0;exitY=0.5;exitDx=0;exitDy=0;entryX=0.5;entryY=1;entryDx=0;entryDy=0;startArrow=classic;startFill=1;jumpStyle=arc;jumpSize=10;" parent="1" source="ipltXtEzXzWhb76HW8sk-15" target="ipltXtEzXzWhb76HW8sk-10" edge="1">
                    <mxGeometry relative="1" as="geometry"/>
                </mxCell>
                <mxCell id="ipltXtEzXzWhb76HW8sk-22" value="&lt;font style=&quot;font-size: 14px;&quot; face=&quot;仿宋&quot;&gt;期望压缩量等信息&lt;br&gt;可用串口通讯&lt;br&gt;&lt;/font&gt;" style="edgeLabel;html=1;align=center;verticalAlign=middle;resizable=0;points=[];" parent="ipltXtEzXzWhb76HW8sk-21" vertex="1" connectable="0">
                    <mxGeometry relative="1" as="geometry">
                        <mxPoint x="89" y="1" as="offset"/>
                    </mxGeometry>
                </mxCell>
                <mxCell id="ipltXtEzXzWhb76HW8sk-15" value="前小主控&lt;br&gt;负责确保压缩量稳定&lt;br&gt;控3个电机&lt;br&gt;使用单路CAN小板子" style="rounded=1;whiteSpace=wrap;html=1;fontFamily=仿宋;fillColor=#f8cecc;strokeColor=#b85450;" parent="1" vertex="1">
                    <mxGeometry x="419" y="810" width="161" height="80" as="geometry"/>
                </mxCell>
                <mxCell id="ipltXtEzXzWhb76HW8sk-47" style="edgeStyle=orthogonalEdgeStyle;rounded=1;orthogonalLoop=1;jettySize=auto;html=1;exitX=0.5;exitY=1;exitDx=0;exitDy=0;entryX=0.75;entryY=1;entryDx=0;entryDy=0;" parent="1" source="ipltXtEzXzWhb76HW8sk-24" target="ipltXtEzXzWhb76HW8sk-41" edge="1">
                    <mxGeometry relative="1" as="geometry"/>
                </mxCell>
                <mxCell id="ipltXtEzXzWhb76HW8sk-24" value="后左(BL)舵轮组&lt;br&gt;(M2006*2)" style="rounded=1;whiteSpace=wrap;html=1;fontFamily=仿宋;fillColor=#f5f5f5;fontColor=#333333;strokeColor=#666666;" parent="1" vertex="1">
                    <mxGeometry x="950" y="680" width="119" height="60" as="geometry"/>
                </mxCell>
                <mxCell id="ipltXtEzXzWhb76HW8sk-49" style="edgeStyle=orthogonalEdgeStyle;rounded=1;orthogonalLoop=1;jettySize=auto;html=1;exitX=1;exitY=0.5;exitDx=0;exitDy=0;entryX=0.25;entryY=1;entryDx=0;entryDy=0;" parent="1" source="ipltXtEzXzWhb76HW8sk-26" target="ipltXtEzXzWhb76HW8sk-41" edge="1">
                    <mxGeometry relative="1" as="geometry"/>
                </mxCell>
                <mxCell id="ipltXtEzXzWhb76HW8sk-26" value="后右(BR)舵轮组&lt;br&gt;(M2006*2)" style="rounded=1;whiteSpace=wrap;html=1;fontFamily=仿宋;fillColor=#f5f5f5;fontColor=#333333;strokeColor=#666666;" parent="1" vertex="1">
                    <mxGeometry x="1310" y="680" width="119" height="60" as="geometry"/>
                </mxCell>
                <mxCell id="ipltXtEzXzWhb76HW8sk-45" style="edgeStyle=orthogonalEdgeStyle;rounded=1;orthogonalLoop=1;jettySize=auto;html=1;exitX=1;exitY=0.5;exitDx=0;exitDy=0;entryX=0;entryY=0.5;entryDx=0;entryDy=0;" parent="1" source="ipltXtEzXzWhb76HW8sk-28" target="ipltXtEzXzWhb76HW8sk-41" edge="1">
                    <mxGeometry relative="1" as="geometry"/>
                </mxCell>
                <mxCell id="ipltXtEzXzWhb76HW8sk-28" value="后中(BM)舵轮组&lt;br&gt;(M2006*2)" style="rounded=1;whiteSpace=wrap;html=1;fontFamily=仿宋;fillColor=#f5f5f5;fontColor=#333333;strokeColor=#666666;" parent="1" vertex="1">
                    <mxGeometry x="1130" y="280" width="119" height="60" as="geometry"/>
                </mxCell>
                <mxCell id="ipltXtEzXzWhb76HW8sk-29" style="edgeStyle=orthogonalEdgeStyle;rounded=1;orthogonalLoop=1;jettySize=auto;html=1;exitX=1;exitY=0.5;exitDx=0;exitDy=0;entryX=0;entryY=0.25;entryDx=0;entryDy=0;" parent="1" source="ipltXtEzXzWhb76HW8sk-30" target="ipltXtEzXzWhb76HW8sk-44" edge="1">
                    <mxGeometry relative="1" as="geometry"/>
                </mxCell>
                <mxCell id="ipltXtEzXzWhb76HW8sk-30" value="左压缩量传感器&lt;br&gt;左张角编码器" style="rounded=1;whiteSpace=wrap;html=1;fontFamily=仿宋;fillColor=#d5e8d4;strokeColor=#82b366;" parent="1" vertex="1">
                    <mxGeometry x="950" y="600" width="119" height="60" as="geometry"/>
                </mxCell>
                <mxCell id="ipltXtEzXzWhb76HW8sk-31" style="edgeStyle=orthogonalEdgeStyle;rounded=1;orthogonalLoop=1;jettySize=auto;html=1;exitX=0;exitY=0.5;exitDx=0;exitDy=0;entryX=1;entryY=0.25;entryDx=0;entryDy=0;" parent="1" source="ipltXtEzXzWhb76HW8sk-32" target="ipltXtEzXzWhb76HW8sk-44" edge="1">
                    <mxGeometry relative="1" as="geometry"/>
                </mxCell>
                <mxCell id="ipltXtEzXzWhb76HW8sk-32" value="右压缩量传感器&lt;br&gt;右张角编码器" style="rounded=1;whiteSpace=wrap;html=1;fontFamily=仿宋;fillColor=#d5e8d4;strokeColor=#82b366;" parent="1" vertex="1">
                    <mxGeometry x="1310" y="600" width="119" height="60" as="geometry"/>
                </mxCell>
                <mxCell id="ipltXtEzXzWhb76HW8sk-46" style="edgeStyle=orthogonalEdgeStyle;rounded=1;orthogonalLoop=1;jettySize=auto;html=1;exitX=1;exitY=0.5;exitDx=0;exitDy=0;entryX=0.5;entryY=0;entryDx=0;entryDy=0;" parent="1" source="ipltXtEzXzWhb76HW8sk-34" target="ipltXtEzXzWhb76HW8sk-41" edge="1">
                    <mxGeometry relative="1" as="geometry"/>
                </mxCell>
                <mxCell id="ipltXtEzXzWhb76HW8sk-34" value="测距传感器*2" style="rounded=1;whiteSpace=wrap;html=1;fontFamily=仿宋;fillColor=#d5e8d4;strokeColor=#82b366;" parent="1" vertex="1">
                    <mxGeometry x="1130" y="360" width="119" height="60" as="geometry"/>
                </mxCell>
                <mxCell id="ipltXtEzXzWhb76HW8sk-35" style="edgeStyle=orthogonalEdgeStyle;rounded=1;orthogonalLoop=1;jettySize=auto;html=1;exitX=1;exitY=0.5;exitDx=0;exitDy=0;entryX=0.25;entryY=0;entryDx=0;entryDy=0;" parent="1" source="ipltXtEzXzWhb76HW8sk-36" target="ipltXtEzXzWhb76HW8sk-44" edge="1">
                    <mxGeometry relative="1" as="geometry"/>
                </mxCell>
                <mxCell id="ipltXtEzXzWhb76HW8sk-36" value="后左(BL)臂张角电机&lt;br&gt;(M2006*1)" style="rounded=1;whiteSpace=wrap;html=1;fontFamily=仿宋;fillColor=#f5f5f5;fontColor=#333333;strokeColor=#666666;" parent="1" vertex="1">
                    <mxGeometry x="950" y="520" width="119" height="60" as="geometry"/>
                </mxCell>
                <mxCell id="ipltXtEzXzWhb76HW8sk-37" style="edgeStyle=orthogonalEdgeStyle;rounded=1;orthogonalLoop=1;jettySize=auto;html=1;exitX=0;exitY=0.5;exitDx=0;exitDy=0;entryX=0.75;entryY=0;entryDx=0;entryDy=0;" parent="1" source="ipltXtEzXzWhb76HW8sk-38" target="ipltXtEzXzWhb76HW8sk-44" edge="1">
                    <mxGeometry relative="1" as="geometry"/>
                </mxCell>
                <mxCell id="ipltXtEzXzWhb76HW8sk-38" value="后右(BR)臂张角电机&lt;br&gt;(M2006*1)" style="rounded=1;whiteSpace=wrap;html=1;fontFamily=仿宋;fillColor=#f5f5f5;fontColor=#333333;strokeColor=#666666;" parent="1" vertex="1">
                    <mxGeometry x="1310" y="520" width="119" height="60" as="geometry"/>
                </mxCell>
                <mxCell id="ipltXtEzXzWhb76HW8sk-39" style="edgeStyle=orthogonalEdgeStyle;rounded=1;orthogonalLoop=1;jettySize=auto;html=1;exitX=0.5;exitY=1;exitDx=0;exitDy=0;entryX=0.5;entryY=0;entryDx=0;entryDy=0;" parent="1" source="ipltXtEzXzWhb76HW8sk-40" target="ipltXtEzXzWhb76HW8sk-44" edge="1">
                    <mxGeometry relative="1" as="geometry"/>
                </mxCell>
                <mxCell id="ipltXtEzXzWhb76HW8sk-40" value="后中(BM)下压电机&lt;br&gt;(M2006*1)" style="rounded=1;whiteSpace=wrap;html=1;fontFamily=仿宋;fillColor=#f5f5f5;fontColor=#333333;strokeColor=#666666;" parent="1" vertex="1">
                    <mxGeometry x="1130" y="440" width="119" height="60" as="geometry"/>
                </mxCell>
                <mxCell id="ipltXtEzXzWhb76HW8sk-53" style="edgeStyle=orthogonalEdgeStyle;rounded=1;orthogonalLoop=1;jettySize=auto;html=1;exitX=0.75;exitY=0;exitDx=0;exitDy=0;entryX=1;entryY=0.5;entryDx=0;entryDy=0;dashed=1;strokeWidth=2;" parent="1" source="ipltXtEzXzWhb76HW8sk-41" target="ipltXtEzXzWhb76HW8sk-51" edge="1">
                    <mxGeometry relative="1" as="geometry"/>
                </mxCell>
                <mxCell id="ipltXtEzXzWhb76HW8sk-41" value="后大主控&lt;br&gt;控制三组驱动电机&lt;br&gt;控6个电机&lt;br&gt;使用双路CAN大板子" style="rounded=1;whiteSpace=wrap;html=1;fontFamily=仿宋;fillColor=#f8cecc;strokeColor=#b85450;" parent="1" vertex="1">
                    <mxGeometry x="1460" y="420" width="161" height="100" as="geometry"/>
                </mxCell>
                <mxCell id="ipltXtEzXzWhb76HW8sk-50" style="edgeStyle=orthogonalEdgeStyle;rounded=1;orthogonalLoop=1;jettySize=auto;html=1;exitX=1;exitY=0.5;exitDx=0;exitDy=0;entryX=0.5;entryY=1;entryDx=0;entryDy=0;" parent="1" source="ipltXtEzXzWhb76HW8sk-44" target="ipltXtEzXzWhb76HW8sk-41" edge="1">
                    <mxGeometry relative="1" as="geometry"/>
                </mxCell>
                <mxCell id="ipltXtEzXzWhb76HW8sk-44" value="后小主控&lt;br&gt;负责确保压缩量稳定&lt;br&gt;控3个电机&lt;br&gt;使用单路CAN小板子" style="rounded=1;whiteSpace=wrap;html=1;fontFamily=仿宋;fillColor=#f8cecc;strokeColor=#b85450;" parent="1" vertex="1">
                    <mxGeometry x="1109" y="810" width="161" height="80" as="geometry"/>
                </mxCell>
                <mxCell id="ipltXtEzXzWhb76HW8sk-55" style="edgeStyle=orthogonalEdgeStyle;rounded=1;orthogonalLoop=1;jettySize=auto;html=1;exitX=0.25;exitY=1;exitDx=0;exitDy=0;entryX=0.25;entryY=0;entryDx=0;entryDy=0;" parent="1" source="ipltXtEzXzWhb76HW8sk-51" target="ipltXtEzXzWhb76HW8sk-54" edge="1">
                    <mxGeometry relative="1" as="geometry"/>
                </mxCell>
                <mxCell id="ipltXtEzXzWhb76HW8sk-51" value="中置总主控&lt;br&gt;控前后侧连接的翻转电机&lt;br&gt;处理收发信息&lt;br&gt;（可用小板子？）" style="rounded=1;whiteSpace=wrap;html=1;fontFamily=仿宋;fillColor=#f8cecc;strokeColor=#b85450;" parent="1" vertex="1">
                    <mxGeometry x="760" y="200" width="161" height="100" as="geometry"/>
                </mxCell>
                <mxCell id="ipltXtEzXzWhb76HW8sk-56" style="edgeStyle=orthogonalEdgeStyle;rounded=1;orthogonalLoop=1;jettySize=auto;html=1;exitX=0.75;exitY=0;exitDx=0;exitDy=0;entryX=0.75;entryY=1;entryDx=0;entryDy=0;" parent="1" source="ipltXtEzXzWhb76HW8sk-54" target="ipltXtEzXzWhb76HW8sk-51" edge="1">
                    <mxGeometry relative="1" as="geometry"/>
                </mxCell>
                <mxCell id="ipltXtEzXzWhb76HW8sk-54" value="Jetson Nano" style="rounded=1;whiteSpace=wrap;html=1;fontFamily=仿宋;fillColor=#fff2cc;strokeColor=#d6b656;" parent="1" vertex="1">
                    <mxGeometry x="761" y="380" width="159" height="80" as="geometry"/>
                </mxCell>
            </root>
        </mxGraphModel>
    </diagram>
    <diagram id="xrSNqSFUFBhb1SRkDh2f" name="新电控硬件图">
        <mxGraphModel dx="1548" dy="894" grid="1" gridSize="10" guides="1" tooltips="1" connect="1" arrows="1" fold="1" page="1" pageScale="1" pageWidth="1654" pageHeight="1169" math="0" shadow="0">
            <root>
                <mxCell id="0"/>
                <mxCell id="1" parent="0"/>
                <mxCell id="7bb_RsBFDF6qwyK5AfoZ-71" value="" style="rounded=1;whiteSpace=wrap;html=1;fillColor=none;dashed=1;strokeWidth=3;strokeColor=#66B2FF;glass=0;" parent="1" vertex="1">
                    <mxGeometry x="330" y="250" width="720" height="680" as="geometry"/>
                </mxCell>
                <mxCell id="7bb_RsBFDF6qwyK5AfoZ-59" style="edgeStyle=orthogonalEdgeStyle;rounded=1;orthogonalLoop=1;jettySize=auto;html=1;exitX=0;exitY=0.5;exitDx=0;exitDy=0;" parent="1" source="7bb_RsBFDF6qwyK5AfoZ-2" target="7bb_RsBFDF6qwyK5AfoZ-23" edge="1">
                    <mxGeometry relative="1" as="geometry"/>
                </mxCell>
                <mxCell id="7bb_RsBFDF6qwyK5AfoZ-2" value="前左(FL)舵轮组&lt;br&gt;(M2006*2)" style="rounded=1;whiteSpace=wrap;html=1;fontFamily=仿宋;fillColor=#f5f5f5;fontColor=#333333;strokeColor=#666666;" parent="1" vertex="1">
                    <mxGeometry x="589" y="833" width="119" height="60" as="geometry"/>
                </mxCell>
                <mxCell id="7bb_RsBFDF6qwyK5AfoZ-57" style="edgeStyle=orthogonalEdgeStyle;rounded=1;orthogonalLoop=1;jettySize=auto;html=1;exitX=1;exitY=0.5;exitDx=0;exitDy=0;entryX=0.5;entryY=1;entryDx=0;entryDy=0;" parent="1" source="7bb_RsBFDF6qwyK5AfoZ-4" target="7bb_RsBFDF6qwyK5AfoZ-54" edge="1">
                    <mxGeometry relative="1" as="geometry"/>
                </mxCell>
                <mxCell id="7bb_RsBFDF6qwyK5AfoZ-4" value="前右(FR)舵轮组&lt;br&gt;(M2006*2)" style="rounded=1;whiteSpace=wrap;html=1;fontFamily=仿宋;fillColor=#f5f5f5;fontColor=#333333;strokeColor=#666666;" parent="1" vertex="1">
                    <mxGeometry x="719" y="833" width="119" height="60" as="geometry"/>
                </mxCell>
                <mxCell id="7bb_RsBFDF6qwyK5AfoZ-61" style="edgeStyle=orthogonalEdgeStyle;rounded=1;orthogonalLoop=1;jettySize=auto;html=1;exitX=0.5;exitY=0;exitDx=0;exitDy=0;entryX=0.5;entryY=1;entryDx=0;entryDy=0;" parent="1" source="7bb_RsBFDF6qwyK5AfoZ-6" target="7bb_RsBFDF6qwyK5AfoZ-20" edge="1">
                    <mxGeometry relative="1" as="geometry"/>
                </mxCell>
                <mxCell id="7bb_RsBFDF6qwyK5AfoZ-6" value="前中(FM)舵轮组&lt;br&gt;(M2006*2)" style="rounded=1;whiteSpace=wrap;html=1;fontFamily=仿宋;fillColor=#f5f5f5;fontColor=#333333;strokeColor=#666666;" parent="1" vertex="1">
                    <mxGeometry x="661" y="390" width="119" height="60" as="geometry"/>
                </mxCell>
                <mxCell id="7bb_RsBFDF6qwyK5AfoZ-53" style="edgeStyle=orthogonalEdgeStyle;rounded=1;orthogonalLoop=1;jettySize=auto;html=1;exitX=0;exitY=0.5;exitDx=0;exitDy=0;entryX=1;entryY=0.5;entryDx=0;entryDy=0;" parent="1" source="7bb_RsBFDF6qwyK5AfoZ-8" target="7bb_RsBFDF6qwyK5AfoZ-23" edge="1">
                    <mxGeometry relative="1" as="geometry"/>
                </mxCell>
                <mxCell id="7bb_RsBFDF6qwyK5AfoZ-8" value="左压缩量传感器&lt;br&gt;左张角编码器" style="rounded=1;whiteSpace=wrap;html=1;fontFamily=仿宋;fillColor=#d5e8d4;strokeColor=#82b366;" parent="1" vertex="1">
                    <mxGeometry x="589" y="753" width="119" height="60" as="geometry"/>
                </mxCell>
                <mxCell id="7bb_RsBFDF6qwyK5AfoZ-55" style="edgeStyle=orthogonalEdgeStyle;rounded=1;orthogonalLoop=1;jettySize=auto;html=1;exitX=1;exitY=0.5;exitDx=0;exitDy=0;entryX=0;entryY=0.5;entryDx=0;entryDy=0;" parent="1" source="7bb_RsBFDF6qwyK5AfoZ-10" target="7bb_RsBFDF6qwyK5AfoZ-54" edge="1">
                    <mxGeometry relative="1" as="geometry"/>
                </mxCell>
                <mxCell id="7bb_RsBFDF6qwyK5AfoZ-10" value="右压缩量传感器&lt;br&gt;右张角编码器" style="rounded=1;whiteSpace=wrap;html=1;fontFamily=仿宋;fillColor=#d5e8d4;strokeColor=#82b366;" parent="1" vertex="1">
                    <mxGeometry x="719" y="753" width="119" height="60" as="geometry"/>
                </mxCell>
                <mxCell id="7bb_RsBFDF6qwyK5AfoZ-60" style="edgeStyle=orthogonalEdgeStyle;rounded=1;orthogonalLoop=1;jettySize=auto;html=1;exitX=0;exitY=0.5;exitDx=0;exitDy=0;entryX=0;entryY=0.5;entryDx=0;entryDy=0;" parent="1" source="7bb_RsBFDF6qwyK5AfoZ-12" target="7bb_RsBFDF6qwyK5AfoZ-20" edge="1">
                    <mxGeometry relative="1" as="geometry"/>
                </mxCell>
                <mxCell id="7bb_RsBFDF6qwyK5AfoZ-12" value="测距传感器*2" style="rounded=1;whiteSpace=wrap;html=1;fontFamily=仿宋;fillColor=#d5e8d4;strokeColor=#82b366;" parent="1" vertex="1">
                    <mxGeometry x="661" y="470" width="119" height="60" as="geometry"/>
                </mxCell>
                <mxCell id="7bb_RsBFDF6qwyK5AfoZ-58" style="edgeStyle=orthogonalEdgeStyle;rounded=1;orthogonalLoop=1;jettySize=auto;html=1;exitX=0;exitY=0.5;exitDx=0;exitDy=0;" parent="1" source="7bb_RsBFDF6qwyK5AfoZ-14" target="7bb_RsBFDF6qwyK5AfoZ-23" edge="1">
                    <mxGeometry relative="1" as="geometry"/>
                </mxCell>
                <mxCell id="7bb_RsBFDF6qwyK5AfoZ-14" value="前左(FL)臂张角电机&lt;br&gt;(M2006*1)" style="rounded=1;whiteSpace=wrap;html=1;fontFamily=仿宋;fillColor=#f5f5f5;fontColor=#333333;strokeColor=#666666;" parent="1" vertex="1">
                    <mxGeometry x="589" y="673" width="119" height="60" as="geometry"/>
                </mxCell>
                <mxCell id="7bb_RsBFDF6qwyK5AfoZ-56" style="edgeStyle=orthogonalEdgeStyle;rounded=1;orthogonalLoop=1;jettySize=auto;html=1;exitX=1;exitY=0.5;exitDx=0;exitDy=0;" parent="1" source="7bb_RsBFDF6qwyK5AfoZ-16" target="7bb_RsBFDF6qwyK5AfoZ-54" edge="1">
                    <mxGeometry relative="1" as="geometry"/>
                </mxCell>
                <mxCell id="7bb_RsBFDF6qwyK5AfoZ-16" value="前右(FR)臂张角电机&lt;br&gt;(M2006*1)" style="rounded=1;whiteSpace=wrap;html=1;fontFamily=仿宋;fillColor=#f5f5f5;fontColor=#333333;strokeColor=#666666;" parent="1" vertex="1">
                    <mxGeometry x="719" y="673" width="119" height="60" as="geometry"/>
                </mxCell>
                <mxCell id="7bb_RsBFDF6qwyK5AfoZ-62" style="edgeStyle=orthogonalEdgeStyle;rounded=1;orthogonalLoop=1;jettySize=auto;html=1;exitX=1;exitY=0.5;exitDx=0;exitDy=0;entryX=1;entryY=0.5;entryDx=0;entryDy=0;" parent="1" source="7bb_RsBFDF6qwyK5AfoZ-18" target="7bb_RsBFDF6qwyK5AfoZ-20" edge="1">
                    <mxGeometry relative="1" as="geometry">
                        <Array as="points">
                            <mxPoint x="820.02" y="580"/>
                            <mxPoint x="820.02" y="310"/>
                        </Array>
                    </mxGeometry>
                </mxCell>
                <mxCell id="7bb_RsBFDF6qwyK5AfoZ-18" value="前中(FM)下压电机&lt;br&gt;(M2006*1)" style="rounded=1;whiteSpace=wrap;html=1;fontFamily=仿宋;fillColor=#f5f5f5;fontColor=#333333;strokeColor=#666666;" parent="1" vertex="1">
                    <mxGeometry x="661" y="550" width="119" height="60" as="geometry"/>
                </mxCell>
                <mxCell id="7bb_RsBFDF6qwyK5AfoZ-20" value="前中(FM)主控&lt;br&gt;控制单边轮速同步&lt;br&gt;中间舵轮" style="rounded=1;whiteSpace=wrap;html=1;fontFamily=仿宋;fillColor=#f8cecc;strokeColor=#b85450;" parent="1" vertex="1">
                    <mxGeometry x="650" y="270" width="141" height="80" as="geometry"/>
                </mxCell>
                <mxCell id="7bb_RsBFDF6qwyK5AfoZ-23" value="前左(FL)主控&lt;br&gt;控制左臂电机以及舵轮&lt;br&gt;传输张角" style="rounded=1;whiteSpace=wrap;html=1;fontFamily=仿宋;fillColor=#f8cecc;strokeColor=#b85450;" parent="1" vertex="1">
                    <mxGeometry x="389" y="743" width="161" height="80" as="geometry"/>
                </mxCell>
                <mxCell id="7bb_RsBFDF6qwyK5AfoZ-68" style="edgeStyle=orthogonalEdgeStyle;rounded=1;orthogonalLoop=1;jettySize=auto;html=1;exitX=0.5;exitY=0;exitDx=0;exitDy=0;entryX=0.75;entryY=1;entryDx=0;entryDy=0;startArrow=classic;startFill=1;" parent="1" source="7bb_RsBFDF6qwyK5AfoZ-47" target="7bb_RsBFDF6qwyK5AfoZ-64" edge="1">
                    <mxGeometry relative="1" as="geometry"/>
                </mxCell>
                <mxCell id="7bb_RsBFDF6qwyK5AfoZ-47" value="中置总主控&lt;br&gt;控前后侧连接的翻转电机&lt;br&gt;处理收发信息&lt;br&gt;可用小板子" style="rounded=1;whiteSpace=wrap;html=1;fontFamily=仿宋;fillColor=#f8cecc;strokeColor=#b85450;" parent="1" vertex="1">
                    <mxGeometry x="1090" y="380" width="161" height="100" as="geometry"/>
                </mxCell>
                <mxCell id="7bb_RsBFDF6qwyK5AfoZ-49" value="Jetson Nano" style="rounded=1;whiteSpace=wrap;html=1;fontFamily=仿宋;fillColor=#fff2cc;strokeColor=#d6b656;" parent="1" vertex="1">
                    <mxGeometry x="1270" y="390" width="159" height="80" as="geometry"/>
                </mxCell>
                <mxCell id="7bb_RsBFDF6qwyK5AfoZ-54" value="前右(FR)主控&lt;br&gt;控制左臂电机以及舵轮&lt;br&gt;传输张角" style="rounded=1;whiteSpace=wrap;html=1;fontFamily=仿宋;fillColor=#f8cecc;strokeColor=#b85450;" parent="1" vertex="1">
                    <mxGeometry x="879" y="743" width="161" height="80" as="geometry"/>
                </mxCell>
                <mxCell id="7bb_RsBFDF6qwyK5AfoZ-65" style="edgeStyle=orthogonalEdgeStyle;rounded=1;orthogonalLoop=1;jettySize=auto;html=1;entryX=0.25;entryY=0;entryDx=0;entryDy=0;startArrow=classic;startFill=1;exitX=0.125;exitY=1.033;exitDx=0;exitDy=0;exitPerimeter=0;" parent="1" source="7bb_RsBFDF6qwyK5AfoZ-64" target="7bb_RsBFDF6qwyK5AfoZ-23" edge="1">
                    <mxGeometry relative="1" as="geometry">
                        <mxPoint x="429" y="200" as="sourcePoint"/>
                    </mxGeometry>
                </mxCell>
                <mxCell id="7bb_RsBFDF6qwyK5AfoZ-66" style="edgeStyle=orthogonalEdgeStyle;rounded=1;orthogonalLoop=1;jettySize=auto;html=1;exitX=0.5;exitY=1;exitDx=0;exitDy=0;entryX=0.5;entryY=0;entryDx=0;entryDy=0;startArrow=classic;startFill=1;" parent="1" source="7bb_RsBFDF6qwyK5AfoZ-64" target="7bb_RsBFDF6qwyK5AfoZ-20" edge="1">
                    <mxGeometry relative="1" as="geometry"/>
                </mxCell>
                <mxCell id="7bb_RsBFDF6qwyK5AfoZ-64" value="&lt;font style=&quot;font-size: 16px;&quot;&gt;交换机&lt;/font&gt;" style="rounded=1;whiteSpace=wrap;html=1;fontFamily=仿宋;fillColor=#fff2cc;strokeColor=#d6b656;" parent="1" vertex="1">
                    <mxGeometry x="300" y="130" width="1029" height="60" as="geometry"/>
                </mxCell>
                <mxCell id="7bb_RsBFDF6qwyK5AfoZ-69" style="edgeStyle=orthogonalEdgeStyle;rounded=1;orthogonalLoop=1;jettySize=auto;html=1;exitX=0.5;exitY=0;exitDx=0;exitDy=0;entryX=0.884;entryY=0.986;entryDx=0;entryDy=0;entryPerimeter=0;" parent="1" source="7bb_RsBFDF6qwyK5AfoZ-49" target="7bb_RsBFDF6qwyK5AfoZ-64" edge="1">
                    <mxGeometry relative="1" as="geometry"/>
                </mxCell>
                <mxCell id="7bb_RsBFDF6qwyK5AfoZ-70" style="edgeStyle=orthogonalEdgeStyle;rounded=1;orthogonalLoop=1;jettySize=auto;html=1;exitX=0.75;exitY=0;exitDx=0;exitDy=0;entryX=0.681;entryY=1.033;entryDx=0;entryDy=0;entryPerimeter=0;startArrow=classic;startFill=1;" parent="1" source="7bb_RsBFDF6qwyK5AfoZ-54" target="7bb_RsBFDF6qwyK5AfoZ-64" edge="1">
                    <mxGeometry relative="1" as="geometry"/>
                </mxCell>
                <mxCell id="7bb_RsBFDF6qwyK5AfoZ-72" value="&lt;font style=&quot;font-size: 16px;&quot;&gt;单侧架构&lt;/font&gt;" style="text;html=1;strokeColor=none;fillColor=none;align=center;verticalAlign=middle;whiteSpace=wrap;rounded=1;" parent="1" vertex="1">
                    <mxGeometry x="270" y="240" width="80" height="30" as="geometry"/>
                </mxCell>
                <mxCell id="7bb_RsBFDF6qwyK5AfoZ-73" value="&lt;font face=&quot;仿宋&quot; style=&quot;font-size: 24px;&quot;&gt;对侧机构&lt;/font&gt;" style="rounded=1;whiteSpace=wrap;html=1;fillColor=none;dashed=1;strokeWidth=3;strokeColor=#66B2FF;" parent="1" vertex="1">
                    <mxGeometry x="1090" y="590" width="340" height="190" as="geometry"/>
                </mxCell>
                <mxCell id="7bb_RsBFDF6qwyK5AfoZ-74" style="edgeStyle=orthogonalEdgeStyle;rounded=1;orthogonalLoop=1;jettySize=auto;html=1;exitX=1;exitY=0.5;exitDx=0;exitDy=0;entryX=0.997;entryY=0.553;entryDx=0;entryDy=0;entryPerimeter=0;startArrow=classic;startFill=1;" parent="1" source="7bb_RsBFDF6qwyK5AfoZ-64" target="7bb_RsBFDF6qwyK5AfoZ-73" edge="1">
                    <mxGeometry relative="1" as="geometry">
                        <Array as="points">
                            <mxPoint x="1510" y="160"/>
                            <mxPoint x="1510" y="695"/>
                        </Array>
                    </mxGeometry>
                </mxCell>
                <mxCell id="7bb_RsBFDF6qwyK5AfoZ-75" value="&lt;font face=&quot;仿宋&quot; style=&quot;font-size: 19px;&quot;&gt;共需7块小控制板、&lt;br&gt;1到2块网络交换机模块&lt;/font&gt;" style="text;html=1;strokeColor=none;fillColor=none;align=center;verticalAlign=middle;whiteSpace=wrap;rounded=1;" parent="1" vertex="1">
                    <mxGeometry x="1110" y="810" width="300" height="44" as="geometry"/>
                </mxCell>
            </root>
        </mxGraphModel>
    </diagram>
    <diagram id="k89o69JLmeYMUJpUvPXX" name="ID与信息流图">
        <mxGraphModel dx="1311" dy="714" grid="1" gridSize="10" guides="1" tooltips="1" connect="1" arrows="1" fold="1" page="1" pageScale="1" pageWidth="1654" pageHeight="1169" math="0" shadow="0">
            <root>
                <mxCell id="0"/>
                <mxCell id="1" parent="0"/>
                <mxCell id="gQwUExQHGC8yf7dgA47--2" value="" style="group" parent="1" vertex="1" connectable="0">
                    <mxGeometry x="269" y="280" width="181" height="600" as="geometry"/>
                </mxCell>
                <mxCell id="czMifvcM83LiHhBELGwl-4" value="" style="rounded=1;whiteSpace=wrap;html=1;fillColor=none;dashed=1;strokeWidth=3;strokeColor=#66B2FF;align=left;" parent="gQwUExQHGC8yf7dgA47--2" vertex="1">
                    <mxGeometry y="30" width="181" height="570" as="geometry"/>
                </mxCell>
                <mxCell id="gQwUExQHGC8yf7dgA47--1" value="&lt;font style=&quot;font-size: 16px;&quot;&gt;状态&lt;/font&gt;" style="text;html=1;strokeColor=none;fillColor=none;align=center;verticalAlign=middle;whiteSpace=wrap;rounded=1;" parent="gQwUExQHGC8yf7dgA47--2" vertex="1">
                    <mxGeometry x="50.5" width="80" height="30" as="geometry"/>
                </mxCell>
                <mxCell id="j-ZvczPB9DsDIs7U-Gmm-1" value="&lt;font face=&quot;仿宋&quot; style=&quot;font-size: 12px;&quot;&gt;关于单侧小主控的控制流&lt;br&gt;每个小主控控制三个电机：&lt;br&gt;&lt;ul&gt;&lt;li&gt;&lt;font face=&quot;仿宋&quot; style=&quot;font-size: 12px;&quot;&gt;舵轮轮电机&lt;/font&gt;&lt;/li&gt;&lt;li&gt;&lt;font face=&quot;仿宋&quot; style=&quot;font-size: 12px;&quot;&gt;舵轮舵电机&lt;/font&gt;&lt;/li&gt;&lt;li&gt;&lt;font face=&quot;仿宋&quot; style=&quot;font-size: 12px;&quot;&gt;小主控临近的机构电机&lt;/font&gt;&lt;/li&gt;&lt;/ul&gt;&lt;/font&gt;" style="rounded=1;whiteSpace=wrap;html=1;fillColor=none;dashed=1;strokeWidth=3;strokeColor=#66B2FF;align=left;" parent="1" vertex="1">
                    <mxGeometry x="270" y="110" width="220" height="130" as="geometry"/>
                </mxCell>
                <mxCell id="czMifvcM83LiHhBELGwl-1" value="前后单侧沿管道&lt;br&gt;轴向与周向速度" style="rounded=1;whiteSpace=wrap;html=1;fontFamily=仿宋;fillColor=#f5f5f5;fontColor=#333333;strokeColor=#666666;" parent="1" vertex="1">
                    <mxGeometry x="300" y="340" width="119" height="60" as="geometry"/>
                </mxCell>
                <mxCell id="czMifvcM83LiHhBELGwl-2" value="单侧夹持&lt;br&gt;压力（收紧程度）" style="rounded=1;whiteSpace=wrap;html=1;fontFamily=仿宋;fillColor=#f5f5f5;fontColor=#333333;strokeColor=#666666;" parent="1" vertex="1">
                    <mxGeometry x="300" y="430" width="119" height="60" as="geometry"/>
                </mxCell>
                <mxCell id="czMifvcM83LiHhBELGwl-3" value="中置电推杆&lt;br&gt;弯折角度" style="rounded=1;whiteSpace=wrap;html=1;fontFamily=仿宋;fillColor=#f5f5f5;fontColor=#333333;strokeColor=#666666;" parent="1" vertex="1">
                    <mxGeometry x="300" y="520" width="119" height="60" as="geometry"/>
                </mxCell>
                <mxCell id="czMifvcM83LiHhBELGwl-5" value="机器人沿管道&lt;br&gt;轴向与周向位置" style="rounded=1;whiteSpace=wrap;html=1;fontFamily=仿宋;fillColor=#f5f5f5;fontColor=#333333;strokeColor=#666666;" parent="1" vertex="1">
                    <mxGeometry x="300" y="610" width="119" height="60" as="geometry"/>
                </mxCell>
                <mxCell id="czMifvcM83LiHhBELGwl-6" value="机器人相对起点&lt;br&gt;绝对位置（xyz）" style="rounded=1;whiteSpace=wrap;html=1;fontFamily=仿宋;fillColor=#f5f5f5;fontColor=#333333;strokeColor=#666666;" parent="1" vertex="1">
                    <mxGeometry x="300" y="700" width="119" height="60" as="geometry"/>
                </mxCell>
                <mxCell id="czMifvcM83LiHhBELGwl-7" value="机器人单侧姿态角" style="rounded=1;whiteSpace=wrap;html=1;fontFamily=仿宋;fillColor=#f5f5f5;fontColor=#333333;strokeColor=#666666;" parent="1" vertex="1">
                    <mxGeometry x="300" y="790" width="119" height="60" as="geometry"/>
                </mxCell>
                <mxCell id="X0zziCgMfwJPIVHB15Ch-1" value="问题1：&lt;br&gt;为了保证机器人的运动平稳，可能需要根据姿态角进行单侧三个轮子的速度调节，那么应该&lt;b&gt;如何确定目标姿态&lt;/b&gt;？（管道本身的走向可能是未知的-&amp;gt;相机再识别？）" style="rounded=1;whiteSpace=wrap;html=1;fontFamily=仿宋;fillColor=#dae8fc;strokeColor=#6c8ebf;align=left;" parent="1" vertex="1">
                    <mxGeometry x="520" y="640" width="340" height="90" as="geometry"/>
                </mxCell>
                <mxCell id="gQwUExQHGC8yf7dgA47--3" value="" style="group" parent="1" vertex="1" connectable="0">
                    <mxGeometry x="520" y="280" width="250" height="600" as="geometry"/>
                </mxCell>
                <mxCell id="gQwUExQHGC8yf7dgA47--4" value="" style="rounded=1;whiteSpace=wrap;html=1;fillColor=none;dashed=1;strokeWidth=3;strokeColor=#66B2FF;align=left;" parent="gQwUExQHGC8yf7dgA47--3" vertex="1">
                    <mxGeometry y="30" width="210" height="310" as="geometry"/>
                </mxCell>
                <mxCell id="gQwUExQHGC8yf7dgA47--5" value="&lt;font style=&quot;font-size: 16px;&quot;&gt;控制信息&lt;/font&gt;" style="text;html=1;strokeColor=none;fillColor=none;align=center;verticalAlign=middle;whiteSpace=wrap;rounded=1;" parent="gQwUExQHGC8yf7dgA47--3" vertex="1">
                    <mxGeometry x="49.75138121546962" width="110.49723756906077" height="30" as="geometry"/>
                </mxCell>
                <mxCell id="sKnP7ttMzRa6cBgrJvJZ-2" value="前后单侧沿机器人坐标系&lt;br&gt;前进方向和切向速度" style="rounded=1;whiteSpace=wrap;html=1;fontFamily=仿宋;fillColor=#fff2cc;strokeColor=#d6b656;" parent="gQwUExQHGC8yf7dgA47--3" vertex="1">
                    <mxGeometry x="30" y="50" width="140" height="80" as="geometry"/>
                </mxCell>
                <mxCell id="sKnP7ttMzRa6cBgrJvJZ-3" value="前后侧期望&lt;br&gt;夹紧程度" style="rounded=1;whiteSpace=wrap;html=1;fontFamily=仿宋;fillColor=#fff2cc;strokeColor=#d6b656;" parent="gQwUExQHGC8yf7dgA47--3" vertex="1">
                    <mxGeometry x="30" y="140" width="140" height="80" as="geometry"/>
                </mxCell>
                <mxCell id="sKnP7ttMzRa6cBgrJvJZ-4" value="机器人弯折角度" style="rounded=1;whiteSpace=wrap;html=1;fontFamily=仿宋;fillColor=#fff2cc;strokeColor=#d6b656;" parent="gQwUExQHGC8yf7dgA47--3" vertex="1">
                    <mxGeometry x="30" y="230" width="140" height="80" as="geometry"/>
                </mxCell>
                <mxCell id="TKMIDBxqX-JW3R7CGiq8-1" value="&lt;b&gt;中置推杆&lt;/b&gt;控制板&lt;br&gt;·控制五个推杆的位置闭环" style="rounded=1;whiteSpace=wrap;html=1;fontFamily=仿宋;fillColor=#d5e8d4;strokeColor=#82b366;align=left;" parent="1" vertex="1">
                    <mxGeometry x="827" y="555" width="170" height="60" as="geometry"/>
                </mxCell>
                <mxCell id="TKMIDBxqX-JW3R7CGiq8-2" value="&lt;b&gt;单侧主驱动轮控制板×2&lt;/b&gt;&lt;br&gt;· 主驱动舵轮的舵角，轮速&lt;br&gt;· 中置伸缩电机控制&lt;br&gt;· 中置丝杠长度传感器" style="rounded=1;whiteSpace=wrap;html=1;fontFamily=仿宋;fillColor=#d5e8d4;strokeColor=#82b366;align=left;" parent="1" vertex="1">
                    <mxGeometry x="827" y="450" width="170" height="90" as="geometry"/>
                </mxCell>
                <mxCell id="TKMIDBxqX-JW3R7CGiq8-3" value="&lt;b&gt;单侧辅助驱动轮控制板×2&lt;/b&gt;&lt;br&gt;· 控制辅助舵轮的舵角、轮速&lt;br&gt;· 控制单边臂伸展电机（控制弹簧压缩量）&lt;br&gt;· 读取单边臂的弹簧压缩量" style="rounded=1;whiteSpace=wrap;html=1;fontFamily=仿宋;fillColor=#d5e8d4;strokeColor=#82b366;align=left;" parent="1" vertex="1">
                    <mxGeometry x="827" y="320" width="170" height="120" as="geometry"/>
                </mxCell>
                <mxCell id="sKnP7ttMzRa6cBgrJvJZ-6" style="edgeStyle=orthogonalEdgeStyle;rounded=0;orthogonalLoop=1;jettySize=auto;html=1;exitX=0;exitY=0.5;exitDx=0;exitDy=0;" parent="1" source="sKnP7ttMzRa6cBgrJvJZ-2" target="czMifvcM83LiHhBELGwl-1" edge="1">
                    <mxGeometry relative="1" as="geometry"/>
                </mxCell>
                <mxCell id="sKnP7ttMzRa6cBgrJvJZ-7" style="edgeStyle=orthogonalEdgeStyle;rounded=0;orthogonalLoop=1;jettySize=auto;html=1;exitX=0;exitY=0.5;exitDx=0;exitDy=0;entryX=1;entryY=0.5;entryDx=0;entryDy=0;" parent="1" source="sKnP7ttMzRa6cBgrJvJZ-3" target="czMifvcM83LiHhBELGwl-2" edge="1">
                    <mxGeometry relative="1" as="geometry"/>
                </mxCell>
                <mxCell id="sKnP7ttMzRa6cBgrJvJZ-8" style="edgeStyle=orthogonalEdgeStyle;rounded=0;orthogonalLoop=1;jettySize=auto;html=1;exitX=0;exitY=0.5;exitDx=0;exitDy=0;entryX=1;entryY=0.5;entryDx=0;entryDy=0;" parent="1" source="sKnP7ttMzRa6cBgrJvJZ-4" target="czMifvcM83LiHhBELGwl-3" edge="1">
                    <mxGeometry relative="1" as="geometry"/>
                </mxCell>
                <mxCell id="sKnP7ttMzRa6cBgrJvJZ-12" style="edgeStyle=orthogonalEdgeStyle;rounded=0;orthogonalLoop=1;jettySize=auto;html=1;exitX=1;exitY=0.25;exitDx=0;exitDy=0;entryX=0;entryY=0.25;entryDx=0;entryDy=0;" parent="1" source="sKnP7ttMzRa6cBgrJvJZ-2" target="TKMIDBxqX-JW3R7CGiq8-3" edge="1">
                    <mxGeometry relative="1" as="geometry">
                        <Array as="points">
                            <mxPoint x="810" y="350"/>
                            <mxPoint x="810" y="350"/>
                        </Array>
                    </mxGeometry>
                </mxCell>
                <mxCell id="sKnP7ttMzRa6cBgrJvJZ-13" style="edgeStyle=orthogonalEdgeStyle;rounded=0;orthogonalLoop=1;jettySize=auto;html=1;exitX=1;exitY=0.75;exitDx=0;exitDy=0;entryX=0;entryY=0.25;entryDx=0;entryDy=0;" parent="1" source="sKnP7ttMzRa6cBgrJvJZ-2" target="TKMIDBxqX-JW3R7CGiq8-2" edge="1">
                    <mxGeometry relative="1" as="geometry">
                        <Array as="points">
                            <mxPoint x="800" y="390"/>
                            <mxPoint x="800" y="473"/>
                        </Array>
                    </mxGeometry>
                </mxCell>
                <mxCell id="sKnP7ttMzRa6cBgrJvJZ-14" style="edgeStyle=orthogonalEdgeStyle;rounded=0;orthogonalLoop=1;jettySize=auto;html=1;exitX=1;exitY=0.25;exitDx=0;exitDy=0;entryX=0;entryY=0.75;entryDx=0;entryDy=0;" parent="1" source="sKnP7ttMzRa6cBgrJvJZ-3" target="TKMIDBxqX-JW3R7CGiq8-3" edge="1">
                    <mxGeometry relative="1" as="geometry">
                        <Array as="points">
                            <mxPoint x="760" y="440"/>
                            <mxPoint x="760" y="410"/>
                        </Array>
                    </mxGeometry>
                </mxCell>
                <mxCell id="sKnP7ttMzRa6cBgrJvJZ-15" style="edgeStyle=orthogonalEdgeStyle;rounded=0;orthogonalLoop=1;jettySize=auto;html=1;exitX=1;exitY=0.75;exitDx=0;exitDy=0;entryX=0;entryY=0.75;entryDx=0;entryDy=0;" parent="1" source="sKnP7ttMzRa6cBgrJvJZ-3" target="TKMIDBxqX-JW3R7CGiq8-2" edge="1">
                    <mxGeometry relative="1" as="geometry"/>
                </mxCell>
                <mxCell id="sKnP7ttMzRa6cBgrJvJZ-16" style="edgeStyle=orthogonalEdgeStyle;rounded=0;orthogonalLoop=1;jettySize=auto;html=1;exitX=1;exitY=0.5;exitDx=0;exitDy=0;entryX=0;entryY=0.5;entryDx=0;entryDy=0;" parent="1" source="sKnP7ttMzRa6cBgrJvJZ-4" target="TKMIDBxqX-JW3R7CGiq8-1" edge="1">
                    <mxGeometry relative="1" as="geometry"/>
                </mxCell>
                <mxCell id="8WRY3VbhWi4xgLaGtIAl-1" value="问题2：&lt;br&gt;机器人在处理弯曲的管道时如何“顺应”管道走势？是采用单侧夹持还是采用双侧&lt;b&gt;主动顺应&lt;/b&gt;" style="rounded=1;whiteSpace=wrap;html=1;fontFamily=仿宋;fillColor=#dae8fc;strokeColor=#6c8ebf;align=left;" parent="1" vertex="1">
                    <mxGeometry x="520" y="740" width="340" height="90" as="geometry"/>
                </mxCell>
                <mxCell id="ZY5HJhF5wjE67Iyt3dJ4-2" style="edgeStyle=orthogonalEdgeStyle;rounded=0;orthogonalLoop=1;jettySize=auto;html=1;exitX=0;exitY=0.25;exitDx=0;exitDy=0;entryX=1;entryY=0.5;entryDx=0;entryDy=0;" parent="1" source="ZY5HJhF5wjE67Iyt3dJ4-1" target="TKMIDBxqX-JW3R7CGiq8-3" edge="1">
                    <mxGeometry relative="1" as="geometry"/>
                </mxCell>
                <mxCell id="ZY5HJhF5wjE67Iyt3dJ4-3" style="edgeStyle=orthogonalEdgeStyle;rounded=0;orthogonalLoop=1;jettySize=auto;html=1;exitX=0;exitY=0.5;exitDx=0;exitDy=0;entryX=1;entryY=0.5;entryDx=0;entryDy=0;" parent="1" source="ZY5HJhF5wjE67Iyt3dJ4-1" target="TKMIDBxqX-JW3R7CGiq8-2" edge="1">
                    <mxGeometry relative="1" as="geometry"/>
                </mxCell>
                <mxCell id="ZY5HJhF5wjE67Iyt3dJ4-4" style="edgeStyle=orthogonalEdgeStyle;rounded=0;orthogonalLoop=1;jettySize=auto;html=1;exitX=0;exitY=0.75;exitDx=0;exitDy=0;entryX=1;entryY=0.5;entryDx=0;entryDy=0;" parent="1" source="ZY5HJhF5wjE67Iyt3dJ4-1" target="TKMIDBxqX-JW3R7CGiq8-1" edge="1">
                    <mxGeometry relative="1" as="geometry"/>
                </mxCell>
                <mxCell id="ZY5HJhF5wjE67Iyt3dJ4-1" value="&lt;b&gt;NUC上位机&lt;/b&gt;&lt;br&gt;· 远端app控制交互&lt;br&gt;· 视觉定位算法&lt;br&gt;· 下达控制指令&lt;br&gt;· ……" style="rounded=1;whiteSpace=wrap;html=1;fontFamily=仿宋;fillColor=#f8cecc;strokeColor=#b85450;align=left;" parent="1" vertex="1">
                    <mxGeometry x="1090" y="410" width="161" height="130" as="geometry"/>
                </mxCell>
                <mxCell id="ZY5HJhF5wjE67Iyt3dJ4-5" value="问题3：&lt;br&gt;如何保证机器人夹持状态的闭环控制？特别是当机器人只有单侧保持夹持时？" style="rounded=1;whiteSpace=wrap;html=1;fontFamily=仿宋;fillColor=#dae8fc;strokeColor=#6c8ebf;align=left;" parent="1" vertex="1">
                    <mxGeometry x="890" y="640" width="340" height="90" as="geometry"/>
                </mxCell>
            </root>
        </mxGraphModel>
    </diagram>
    <diagram id="GisorbbDbYTro2akmUZi" name="程序结构图">
        <mxGraphModel dx="1114" dy="607" grid="1" gridSize="10" guides="1" tooltips="1" connect="1" arrows="1" fold="1" page="1" pageScale="1" pageWidth="4681" pageHeight="3300" math="0" shadow="0">
            <root>
                <mxCell id="0"/>
                <mxCell id="1" parent="0"/>
                <mxCell id="lf01mYkruWM7tqdxo_nn-5" style="edgeStyle=none;html=1;exitX=0.25;exitY=1;exitDx=0;exitDy=0;entryX=0.25;entryY=0;entryDx=0;entryDy=0;" edge="1" parent="1" source="lf01mYkruWM7tqdxo_nn-1" target="lf01mYkruWM7tqdxo_nn-2">
                    <mxGeometry relative="1" as="geometry"/>
                </mxCell>
                <mxCell id="lf01mYkruWM7tqdxo_nn-7" value="发送&lt;div&gt;控制指令&lt;/div&gt;" style="edgeLabel;html=1;align=center;verticalAlign=middle;resizable=0;points=[];" vertex="1" connectable="0" parent="lf01mYkruWM7tqdxo_nn-5">
                    <mxGeometry x="-0.0319" y="-1" relative="1" as="geometry">
                        <mxPoint as="offset"/>
                    </mxGeometry>
                </mxCell>
                <mxCell id="lf01mYkruWM7tqdxo_nn-1" value="远端手柄&lt;div&gt;App界面&lt;/div&gt;" style="rounded=1;whiteSpace=wrap;html=1;fontFamily=仿宋;fillColor=#fff2cc;strokeColor=#d6b656;" vertex="1" parent="1">
                    <mxGeometry x="450" y="140" width="140" height="80" as="geometry"/>
                </mxCell>
                <mxCell id="lf01mYkruWM7tqdxo_nn-6" style="edgeStyle=none;html=1;exitX=0.75;exitY=0;exitDx=0;exitDy=0;entryX=0.75;entryY=1;entryDx=0;entryDy=0;" edge="1" parent="1" source="lf01mYkruWM7tqdxo_nn-2" target="lf01mYkruWM7tqdxo_nn-1">
                    <mxGeometry relative="1" as="geometry"/>
                </mxCell>
                <mxCell id="lf01mYkruWM7tqdxo_nn-8" value="反馈&lt;div&gt;工作状态&lt;/div&gt;" style="edgeLabel;html=1;align=center;verticalAlign=middle;resizable=0;points=[];" vertex="1" connectable="0" parent="lf01mYkruWM7tqdxo_nn-6">
                    <mxGeometry x="0.0319" y="-1" relative="1" as="geometry">
                        <mxPoint as="offset"/>
                    </mxGeometry>
                </mxCell>
                <mxCell id="Rp4b2JmcleTMsxsB1ne3-4" style="edgeStyle=none;html=1;exitX=0.5;exitY=1;exitDx=0;exitDy=0;entryX=0.5;entryY=0;entryDx=0;entryDy=0;" edge="1" parent="1" source="lf01mYkruWM7tqdxo_nn-2" target="lf01mYkruWM7tqdxo_nn-10">
                    <mxGeometry relative="1" as="geometry"/>
                </mxCell>
                <mxCell id="Rp4b2JmcleTMsxsB1ne3-5" value="一些直接控制&lt;div&gt;的信息&lt;/div&gt;" style="edgeLabel;html=1;align=center;verticalAlign=middle;resizable=0;points=[];" vertex="1" connectable="0" parent="Rp4b2JmcleTMsxsB1ne3-4">
                    <mxGeometry x="0.1578" relative="1" as="geometry">
                        <mxPoint as="offset"/>
                    </mxGeometry>
                </mxCell>
                <mxCell id="lf01mYkruWM7tqdxo_nn-2" value="ROS工程&lt;div&gt;TCP消息收发node&lt;/div&gt;" style="rounded=1;whiteSpace=wrap;html=1;fontFamily=仿宋;fillColor=#fff2cc;strokeColor=#d6b656;" vertex="1" parent="1">
                    <mxGeometry x="450" y="300" width="140" height="80" as="geometry"/>
                </mxCell>
                <mxCell id="Rp4b2JmcleTMsxsB1ne3-6" style="edgeStyle=none;html=1;exitX=0.75;exitY=0;exitDx=0;exitDy=0;entryX=0.75;entryY=1;entryDx=0;entryDy=0;" edge="1" parent="1" source="lf01mYkruWM7tqdxo_nn-10" target="lf01mYkruWM7tqdxo_nn-2">
                    <mxGeometry relative="1" as="geometry"/>
                </mxCell>
                <mxCell id="Rp4b2JmcleTMsxsB1ne3-7" value="反馈信息" style="edgeLabel;html=1;align=center;verticalAlign=middle;resizable=0;points=[];" vertex="1" connectable="0" parent="Rp4b2JmcleTMsxsB1ne3-6">
                    <mxGeometry x="0.5424" y="-2" relative="1" as="geometry">
                        <mxPoint as="offset"/>
                    </mxGeometry>
                </mxCell>
                <mxCell id="Rp4b2JmcleTMsxsB1ne3-8" style="edgeStyle=none;html=1;exitX=0.75;exitY=0;exitDx=0;exitDy=0;entryX=0.75;entryY=1;entryDx=0;entryDy=0;jumpStyle=line;" edge="1" parent="1" source="lf01mYkruWM7tqdxo_nn-10" target="Rp4b2JmcleTMsxsB1ne3-1">
                    <mxGeometry relative="1" as="geometry">
                        <Array as="points">
                            <mxPoint x="551" y="610"/>
                            <mxPoint x="400" y="590"/>
                        </Array>
                    </mxGeometry>
                </mxCell>
                <mxCell id="Rp4b2JmcleTMsxsB1ne3-9" value="用于控制调节的信息" style="edgeLabel;html=1;align=center;verticalAlign=middle;resizable=0;points=[];" vertex="1" connectable="0" parent="Rp4b2JmcleTMsxsB1ne3-8">
                    <mxGeometry x="0.6165" y="-1" relative="1" as="geometry">
                        <mxPoint as="offset"/>
                    </mxGeometry>
                </mxCell>
                <mxCell id="j5UXcdr6WINh7xRkK2s1-4" style="edgeStyle=none;html=1;exitX=1;exitY=0.25;exitDx=0;exitDy=0;entryX=0;entryY=0.5;entryDx=0;entryDy=0;startArrow=classic;startFill=1;" edge="1" parent="1" source="lf01mYkruWM7tqdxo_nn-10" target="j5UXcdr6WINh7xRkK2s1-3">
                    <mxGeometry relative="1" as="geometry"/>
                </mxCell>
                <mxCell id="j5UXcdr6WINh7xRkK2s1-5" style="edgeStyle=none;html=1;exitX=1;exitY=0.5;exitDx=0;exitDy=0;entryX=0;entryY=0.5;entryDx=0;entryDy=0;startArrow=classic;startFill=1;" edge="1" parent="1" source="lf01mYkruWM7tqdxo_nn-10" target="j5UXcdr6WINh7xRkK2s1-2">
                    <mxGeometry relative="1" as="geometry"/>
                </mxCell>
                <mxCell id="j5UXcdr6WINh7xRkK2s1-6" style="edgeStyle=none;html=1;exitX=1;exitY=0.75;exitDx=0;exitDy=0;entryX=0;entryY=0.5;entryDx=0;entryDy=0;startArrow=classic;startFill=1;" edge="1" parent="1" source="lf01mYkruWM7tqdxo_nn-10" target="j5UXcdr6WINh7xRkK2s1-1">
                    <mxGeometry relative="1" as="geometry"/>
                </mxCell>
                <mxCell id="lf01mYkruWM7tqdxo_nn-10" value="下位机&lt;div&gt;STM32数据收发node&lt;/div&gt;" style="rounded=1;whiteSpace=wrap;html=1;fontFamily=仿宋;fillColor=#fff2cc;strokeColor=#d6b656;" vertex="1" parent="1">
                    <mxGeometry x="446" y="680" width="140" height="80" as="geometry"/>
                </mxCell>
                <mxCell id="Rp4b2JmcleTMsxsB1ne3-2" style="edgeStyle=none;html=1;exitX=0.25;exitY=1;exitDx=0;exitDy=0;entryX=0.25;entryY=0;entryDx=0;entryDy=0;" edge="1" parent="1" source="Rp4b2JmcleTMsxsB1ne3-1" target="lf01mYkruWM7tqdxo_nn-10">
                    <mxGeometry relative="1" as="geometry">
                        <Array as="points">
                            <mxPoint x="310" y="630"/>
                            <mxPoint x="480" y="630"/>
                        </Array>
                    </mxGeometry>
                </mxCell>
                <mxCell id="Rp4b2JmcleTMsxsB1ne3-3" value="舵轮期望&lt;div&gt;状态&lt;/div&gt;" style="edgeLabel;html=1;align=center;verticalAlign=middle;resizable=0;points=[];" vertex="1" connectable="0" parent="Rp4b2JmcleTMsxsB1ne3-2">
                    <mxGeometry x="-0.7187" y="1" relative="1" as="geometry">
                        <mxPoint as="offset"/>
                    </mxGeometry>
                </mxCell>
                <mxCell id="Rp4b2JmcleTMsxsB1ne3-1" value="主控制类&lt;div&gt;初步实现为控制双侧舵轮运动&lt;/div&gt;" style="rounded=1;whiteSpace=wrap;html=1;fontFamily=仿宋;fillColor=#dae8fc;strokeColor=#6c8ebf;align=left;" vertex="1" parent="1">
                    <mxGeometry x="280" y="470" width="130" height="90" as="geometry"/>
                </mxCell>
                <mxCell id="j5UXcdr6WINh7xRkK2s1-1" value="&lt;b&gt;中置推杆&lt;/b&gt;控制板&lt;br&gt;·控制五个推杆的位置闭环" style="rounded=1;whiteSpace=wrap;html=1;fontFamily=仿宋;fillColor=#d5e8d4;strokeColor=#82b366;align=left;" vertex="1" parent="1">
                    <mxGeometry x="730" y="700" width="170" height="60" as="geometry"/>
                </mxCell>
                <mxCell id="j5UXcdr6WINh7xRkK2s1-2" value="&lt;b&gt;单侧主驱动轮控制板×2&lt;/b&gt;&lt;br&gt;· 主驱动舵轮的舵角，轮速&lt;br&gt;· 中置伸缩电机控制&lt;br&gt;· 中置丝杠长度传感器" style="rounded=1;whiteSpace=wrap;html=1;fontFamily=仿宋;fillColor=#d5e8d4;strokeColor=#82b366;align=left;" vertex="1" parent="1">
                    <mxGeometry x="730" y="595" width="170" height="90" as="geometry"/>
                </mxCell>
                <mxCell id="j5UXcdr6WINh7xRkK2s1-3" value="&lt;b&gt;单侧辅助驱动轮控制板×2&lt;/b&gt;&lt;br&gt;· 控制辅助舵轮的舵角、轮速&lt;br&gt;· 控制单边臂伸展电机（控制弹簧压缩量）&lt;br&gt;· 读取单边臂的弹簧压缩量" style="rounded=1;whiteSpace=wrap;html=1;fontFamily=仿宋;fillColor=#d5e8d4;strokeColor=#82b366;align=left;" vertex="1" parent="1">
                    <mxGeometry x="730" y="465" width="170" height="120" as="geometry"/>
                </mxCell>
            </root>
        </mxGraphModel>
    </diagram>
    <diagram id="qwAI9ewWi75YrVNxLcFH" name="机器人运行流程图">
        <mxGraphModel dx="1114" dy="607" grid="1" gridSize="10" guides="1" tooltips="1" connect="1" arrows="1" fold="1" page="1" pageScale="1" pageWidth="1654" pageHeight="1169" math="0" shadow="0">
            <root>
                <mxCell id="0"/>
                <mxCell id="1" parent="0"/>
            </root>
        </mxGraphModel>
    </diagram>
</mxfile>